<mxfile host="app.diagrams.net" modified="2022-03-07T02:49:21.064Z" agent="5.0 (Windows NT 10.0; Win64; x64) AppleWebKit/537.36 (KHTML, like Gecko) Chrome/98.0.4758.102 Safari/537.36" etag="4Qvr45poXE3nB2U2YXNc" version="16.6.1" type="github">
  <diagram id="bzI8fDrOKWLvBMaZpVRl" name="Page-1">
    <mxGraphModel dx="1422" dy="794" grid="1" gridSize="10" guides="1" tooltips="1" connect="1" arrows="1" fold="1" page="1" pageScale="1" pageWidth="827" pageHeight="1169" math="0" shadow="0">
      <root>
        <mxCell id="0" />
        <mxCell id="1" parent="0" />
        <mxCell id="Sz6WRACqOfqapwaSOVRm-1" value="人员信息管理" style="rounded=1;whiteSpace=wrap;html=1;" parent="1" vertex="1">
          <mxGeometry x="110" y="350" width="120" height="60" as="geometry" />
        </mxCell>
        <mxCell id="Sz6WRACqOfqapwaSOVRm-8" style="edgeStyle=orthogonalEdgeStyle;rounded=0;orthogonalLoop=1;jettySize=auto;html=1;exitX=0.5;exitY=1;exitDx=0;exitDy=0;" parent="1" source="Sz6WRACqOfqapwaSOVRm-2" target="Sz6WRACqOfqapwaSOVRm-1" edge="1">
          <mxGeometry relative="1" as="geometry" />
        </mxCell>
        <mxCell id="Sz6WRACqOfqapwaSOVRm-11" style="edgeStyle=orthogonalEdgeStyle;rounded=0;orthogonalLoop=1;jettySize=auto;html=1;exitX=1;exitY=0.5;exitDx=0;exitDy=0;entryX=0;entryY=0.5;entryDx=0;entryDy=0;" parent="1" source="Sz6WRACqOfqapwaSOVRm-2" target="Sz6WRACqOfqapwaSOVRm-3" edge="1">
          <mxGeometry relative="1" as="geometry" />
        </mxCell>
        <mxCell id="Sz6WRACqOfqapwaSOVRm-2" value="人群包管理" style="rounded=1;whiteSpace=wrap;html=1;" parent="1" vertex="1">
          <mxGeometry x="110" y="240" width="120" height="60" as="geometry" />
        </mxCell>
        <mxCell id="Sz6WRACqOfqapwaSOVRm-9" style="edgeStyle=orthogonalEdgeStyle;rounded=0;orthogonalLoop=1;jettySize=auto;html=1;exitX=0.5;exitY=1;exitDx=0;exitDy=0;entryX=0.5;entryY=0;entryDx=0;entryDy=0;" parent="1" source="Sz6WRACqOfqapwaSOVRm-3" target="Sz6WRACqOfqapwaSOVRm-4" edge="1">
          <mxGeometry relative="1" as="geometry" />
        </mxCell>
        <mxCell id="Sz6WRACqOfqapwaSOVRm-12" style="edgeStyle=orthogonalEdgeStyle;rounded=0;orthogonalLoop=1;jettySize=auto;html=1;exitX=1;exitY=0.5;exitDx=0;exitDy=0;entryX=0;entryY=0.5;entryDx=0;entryDy=0;" parent="1" source="Sz6WRACqOfqapwaSOVRm-3" target="Sz6WRACqOfqapwaSOVRm-5" edge="1">
          <mxGeometry relative="1" as="geometry" />
        </mxCell>
        <mxCell id="Sz6WRACqOfqapwaSOVRm-3" value="任务管理" style="rounded=1;whiteSpace=wrap;html=1;" parent="1" vertex="1">
          <mxGeometry x="320" y="240" width="120" height="60" as="geometry" />
        </mxCell>
        <mxCell id="Sz6WRACqOfqapwaSOVRm-4" value="短信/外呼模板管理" style="rounded=1;whiteSpace=wrap;html=1;" parent="1" vertex="1">
          <mxGeometry x="320" y="350" width="120" height="60" as="geometry" />
        </mxCell>
        <mxCell id="Sz6WRACqOfqapwaSOVRm-10" style="edgeStyle=orthogonalEdgeStyle;rounded=0;orthogonalLoop=1;jettySize=auto;html=1;exitX=0.5;exitY=1;exitDx=0;exitDy=0;entryX=0.5;entryY=0;entryDx=0;entryDy=0;" parent="1" source="Sz6WRACqOfqapwaSOVRm-5" target="Sz6WRACqOfqapwaSOVRm-6" edge="1">
          <mxGeometry relative="1" as="geometry" />
        </mxCell>
        <mxCell id="Sz6WRACqOfqapwaSOVRm-5" value="短信/外呼记录" style="rounded=1;whiteSpace=wrap;html=1;" parent="1" vertex="1">
          <mxGeometry x="530" y="240" width="120" height="60" as="geometry" />
        </mxCell>
        <mxCell id="Sz6WRACqOfqapwaSOVRm-6" value="短信/外呼详情" style="rounded=1;whiteSpace=wrap;html=1;" parent="1" vertex="1">
          <mxGeometry x="530" y="350" width="120" height="60" as="geometry" />
        </mxCell>
        <mxCell id="aqdFDfgis7o9svOUVbwk-2" style="edgeStyle=orthogonalEdgeStyle;rounded=0;orthogonalLoop=1;jettySize=auto;html=1;exitX=0.5;exitY=1;exitDx=0;exitDy=0;entryX=0.5;entryY=0;entryDx=0;entryDy=0;" edge="1" parent="1" source="aqdFDfgis7o9svOUVbwk-1" target="Sz6WRACqOfqapwaSOVRm-3">
          <mxGeometry relative="1" as="geometry" />
        </mxCell>
        <mxCell id="aqdFDfgis7o9svOUVbwk-1" value="事件入库" style="ellipse;whiteSpace=wrap;html=1;" vertex="1" parent="1">
          <mxGeometry x="320" y="100" width="120" height="80" as="geometry" />
        </mxCell>
        <mxCell id="aqdFDfgis7o9svOUVbwk-3" value="推送管理" style="rounded=1;whiteSpace=wrap;html=1;" vertex="1" parent="1">
          <mxGeometry x="760" y="240" width="120" height="60" as="geometry" />
        </mxCell>
        <mxCell id="aqdFDfgis7o9svOUVbwk-6" style="edgeStyle=orthogonalEdgeStyle;rounded=0;orthogonalLoop=1;jettySize=auto;html=1;entryX=0.417;entryY=-0.017;entryDx=0;entryDy=0;entryPerimeter=0;" edge="1" parent="1" source="aqdFDfgis7o9svOUVbwk-5" target="aqdFDfgis7o9svOUVbwk-3">
          <mxGeometry relative="1" as="geometry" />
        </mxCell>
        <mxCell id="aqdFDfgis7o9svOUVbwk-5" value="防灾知识" style="ellipse;whiteSpace=wrap;html=1;" vertex="1" parent="1">
          <mxGeometry x="750" y="100" width="120" height="80" as="geometry" />
        </mxCell>
      </root>
    </mxGraphModel>
  </diagram>
</mxfile>
